# Blender v2.90.1 OBJ File: ''
# www.blender.org
mtllib oven_door.mtl
o ObjObject
v -3.500000 -0.200001 3.500000
v -3.500000 -1.800000 3.400000
v -3.500000 -1.800000 3.500000
v -3.500000 -0.200001 3.400000
v -3.500000 3.599999 3.500001
v -3.500000 3.599999 3.400001
v -3.500000 3.800000 3.500001
v -3.500000 3.800000 3.400001
v -3.500000 5.199999 3.500001
v -3.500000 5.199999 3.400001
v -0.800000 3.800000 3.400001
v -0.800000 3.599999 3.000001
v -0.800000 3.599999 3.400001
v -0.800000 3.800000 3.000001
v 0.900000 3.800000 3.300001
v 0.900000 3.599999 3.100001
v 0.900000 3.599999 3.300001
v 0.900000 3.800000 3.100001
v -0.700000 3.599999 3.300001
v -0.700000 3.599999 3.100001
v -0.700000 3.800000 3.300001
v -0.700000 3.800000 3.100001
v 1.000000 3.599999 3.400001
v 1.000000 3.599999 3.000001
v 1.000000 3.800000 3.400001
v 1.000000 3.800000 3.000001
v 3.500000 -1.800000 3.500000
v 3.500000 -1.800000 3.400000
v 3.500000 -0.200001 3.500000
v 3.500000 -0.200001 3.400000
v 3.500000 3.599999 3.500001
v 3.500000 3.599999 3.400001
v 3.500000 3.800000 3.500001
v 3.500000 3.800000 3.400001
v 3.500000 5.199999 3.500001
v 3.500000 5.199999 3.400001
v -0.800000 2.700000 3.500001
v -3.500000 3.599999 3.500001
v -3.500000 -0.200001 3.500000
v -0.800000 3.599999 3.500001
v -3.500000 3.800000 3.500001
v -0.700000 2.800000 3.500001
v -0.700000 3.599999 3.500001
v 0.900000 2.800000 3.500001
v 0.900000 3.599999 3.500001
v 1.000000 2.700000 3.500001
v 1.000000 3.599999 3.500001
v 3.500000 -1.800000 3.500000
v -3.500000 -1.800000 3.500000
v 3.500000 -0.200001 3.500000
v 3.500000 3.599999 3.500001
v 3.500000 3.800000 3.500001
v -3.500000 5.199999 3.500001
v 3.500000 5.199999 3.500001
v 0.900000 3.599999 3.100001
v -0.700000 3.800000 3.100001
v -0.700000 3.599999 3.100001
v 0.900000 3.800000 3.100001
v -3.500000 -0.200001 3.400000
v -3.500000 3.599999 3.400001
v -0.800000 2.700000 3.400001
v -3.500000 3.800000 3.400001
v -0.800000 3.599999 3.400001
v -3.500000 5.199999 3.400001
v -0.800000 3.800000 3.400001
v -0.700000 2.800000 3.400001
v -0.700000 3.599999 3.400001
v 0.900000 2.800000 3.400001
v 0.900000 3.599999 3.400001
v 1.000000 2.700000 3.400001
v 1.000000 3.599999 3.400001
v 1.000000 3.800000 3.400001
v -3.500000 -1.800000 3.400000
v 3.500000 -1.800000 3.400000
v 3.500000 -0.200001 3.400000
v 3.500000 3.599999 3.400001
v 3.500000 3.800000 3.400001
v 3.500000 5.199999 3.400001
v -0.700000 3.599999 3.300001
v -0.700000 3.800000 3.300001
v 0.900000 3.599999 3.300001
v 0.900000 3.800000 3.300001
v -0.800000 3.599999 3.000001
v -0.800000 3.800000 3.000001
v 1.000000 3.599999 3.000001
v 1.000000 3.800000 3.000001
v -3.500000 -1.800000 3.400000
v 3.500000 -1.800000 3.500000
v -3.500000 -1.800000 3.500000
v 3.500000 -1.800000 3.400000
v -0.700000 3.599999 3.300001
v -0.700000 3.599999 3.400001
v -0.800000 3.599999 3.400001
v 1.000000 3.599999 3.400001
v 0.900000 3.599999 3.400001
v 0.900000 3.599999 3.300001
v -0.700000 3.599999 3.100001
v 0.900000 3.599999 3.100001
v -0.800000 3.599999 3.000001
v 1.000000 3.599999 3.000001
v -0.800000 3.800000 3.400001
v 1.000000 3.800000 3.400001
v -0.700000 3.800000 3.300001
v 0.900000 3.800000 3.300001
v -0.700000 3.800000 3.100001
v 0.900000 3.800000 3.100001
v -0.800000 3.800000 3.000001
v 1.000000 3.800000 3.000001
v -3.500000 5.199999 3.500001
v 3.500000 5.199999 3.500001
v -3.500000 5.199999 3.400001
v 3.500000 5.199999 3.400001
vt 0.982422 0.500000
vt 0.982422 0.500000
vt 0.982422 0.500000
vt 0.982422 0.500000
vt 0.986328 0.500000
vt 0.986328 0.500000
vt 0.986328 0.500000
vt 0.986328 0.500000
vt 0.982422 0.500000
vt 0.982422 0.500000
vt 0.982422 0.500000
vt 0.982422 0.500000
vt 0.986328 0.500000
vt 0.986328 0.500000
vt 0.986328 0.500000
vt 0.986328 0.500000
vt 0.982422 0.500000
vt 0.982422 0.500000
vt 0.982422 0.500000
vt 0.982422 0.500000
vt 0.982422 0.500000
vt 0.982422 0.500000
vt 0.982422 0.500000
vt 0.982422 0.500000
vt 0.982422 0.500000
vt 0.982422 0.500000
vt 0.982422 0.500000
vt 0.982422 0.500000
vt 0.982422 0.500000
vt 0.982422 0.500000
vt 0.982422 0.500000
vt 0.982422 0.500000
vt 0.982422 0.500000
vt 0.982422 0.500000
vt 0.982422 0.500000
vt 0.982422 0.500000
vt 0.986328 0.500000
vt 0.986328 0.500000
vt 0.986328 0.500000
vt 0.986328 0.500000
vt 0.982422 0.500000
vt 0.982422 0.500000
vt 0.982422 0.500000
vt 0.982422 0.500000
vt 0.986328 0.500000
vt 0.986328 0.500000
vt 0.986328 0.500000
vt 0.986328 0.500000
vt 0.986328 0.500000
vt 0.986328 0.500000
vt 0.986328 0.500000
vt 0.982422 0.500000
vt 0.982422 0.500000
vt 0.982422 0.500000
vt 0.986328 0.500000
vt 0.982422 0.500000
vt 0.982422 0.500000
vt 0.982422 0.500000
vt 0.982422 0.500000
vt 0.986328 0.500000
vt 0.986328 0.500000
vt 0.986328 0.500000
vt 0.982422 0.500000
vt 0.986328 0.500000
vt 0.986328 0.500000
vt 0.982422 0.500000
vt 0.982422 0.500000
vt 0.982422 0.500000
vt 0.982422 0.500000
vt 0.982422 0.500000
vt 0.986328 0.500000
vt 0.982422 0.500000
vt 0.986328 0.500000
vt 0.982422 0.500000
vt 0.986328 0.500000
vt 0.986328 0.500000
vt 0.986328 0.500000
vt 0.986328 0.500000
vt 0.982422 0.500000
vt 0.986328 0.500000
vt 0.982422 0.500000
vt 0.982422 0.500000
vt 0.982422 0.500000
vt 0.982422 0.500000
vt 0.986328 0.500000
vt 0.986328 0.500000
vt 0.986328 0.500000
vt 0.982422 0.500000
vt 0.982422 0.500000
vt 0.982422 0.500000
vt 0.986328 0.500000
vt 0.986328 0.500000
vt 0.986328 0.500000
vt 0.986328 0.500000
vt 0.982422 0.500000
vt 0.982422 0.500000
vt 0.982422 0.500000
vt 0.982422 0.500000
vt 0.982422 0.500000
vt 0.986328 0.500000
vt 0.986328 0.500000
vt 0.986328 0.500000
vt 0.986328 0.500000
vt 0.986328 0.500000
vt 0.982422 0.500000
vt 0.982422 0.500000
vt 0.982422 0.500000
vt 0.986328 0.500000
vt 0.982422 0.500000
vt 0.982422 0.500000
vt 0.982422 0.500000
vt 0.986328 0.500000
vt 0.986328 0.500000
vt 0.982422 0.500000
vt 0.982422 0.500000
vt 0.982422 0.500000
vt 0.986328 0.500000
vt 0.986328 0.500000
vt 0.982422 0.500000
vt 0.986328 0.500000
vt 0.982422 0.500000
vt 0.982422 0.500000
vt 0.982422 0.500000
vt 0.982422 0.500000
vt 0.982422 0.500000
vt 0.982422 0.500000
vt 0.982422 0.500000
vt 0.982422 0.500000
vt 0.982422 0.500000
vt 0.982422 0.500000
vt 0.982422 0.500000
vt 0.982422 0.500000
vt 0.982422 0.500000
vt 0.982422 0.500000
vt 0.982422 0.500000
vt 0.982422 0.500000
vt 0.982422 0.500000
vt 0.982422 0.500000
vt 0.982422 0.500000
vt 0.982422 0.500000
vt 0.982422 0.500000
vt 0.982422 0.500000
vt 0.982422 0.500000
vt 0.982422 0.500000
vt 0.982422 0.500000
vt 0.982422 0.500000
vt 0.982422 0.500000
vt 0.982422 0.500000
vt 0.982422 0.500000
vt 0.982422 0.500000
vt 0.986328 0.500000
vt 0.986328 0.500000
vt 0.986328 0.500000
vt 0.986328 0.500000
vn -1.0000 0.0000 0.0000
vn 1.0000 0.0000 0.0000
vn 0.0000 -0.0000 1.0000
vn 0.0000 0.0000 -1.0000
vn 0.0000 -1.0000 0.0000
vn 0.0000 1.0000 0.0000
usemtl palette
s 1
f 1/1/1 2/2/1 3/3/1
f 4/4/1 2/2/1 1/1/1
f 5/5/1 4/6/1 1/7/1
f 6/8/1 4/6/1 5/5/1
f 7/9/1 6/10/1 5/11/1
f 8/12/1 6/10/1 7/9/1
f 9/13/1 8/14/1 7/15/1
f 10/16/1 8/14/1 9/13/1
f 11/17/1 12/18/1 13/19/1
f 14/20/1 12/18/1 11/17/1
f 15/21/1 16/22/1 17/23/1
f 18/24/1 16/22/1 15/21/1
f 19/25/2 20/26/2 21/27/2
f 21/27/2 20/26/2 22/28/2
f 23/29/2 24/30/2 25/31/2
f 25/31/2 24/30/2 26/32/2
f 27/33/2 28/34/2 29/35/2
f 29/35/2 28/34/2 30/36/2
f 29/37/2 30/38/2 31/39/2
f 31/39/2 30/38/2 32/40/2
f 31/41/2 32/42/2 33/43/2
f 33/43/2 32/42/2 34/44/2
f 33/45/2 34/46/2 35/47/2
f 35/47/2 34/46/2 36/48/2
f 37/49/3 38/50/3 39/51/3
f 40/52/3 41/53/3 38/54/3
f 40/55/3 38/50/3 37/49/3
f 42/56/3 40/52/3 37/57/3
f 43/58/3 41/53/3 40/52/3
f 43/58/3 40/52/3 42/56/3
f 44/59/3 42/56/3 37/57/3
f 44/60/3 43/61/3 42/62/3
f 45/63/3 41/53/3 43/58/3
f 45/64/3 43/61/3 44/60/3
f 46/65/3 37/49/3 39/51/3
f 46/66/3 44/59/3 37/57/3
f 46/66/3 45/63/3 44/59/3
f 47/67/3 41/53/3 45/63/3
f 47/67/3 45/63/3 46/66/3
f 48/68/3 39/69/3 49/70/3
f 50/71/3 46/65/3 39/51/3
f 50/72/3 39/69/3 48/68/3
f 50/71/3 47/73/3 46/65/3
f 51/74/3 41/53/3 47/67/3
f 51/75/3 47/73/3 50/71/3
f 52/76/3 53/77/3 41/78/3
f 52/79/3 41/53/3 51/74/3
f 54/80/3 53/77/3 52/76/3
f 55/81/3 56/82/3 57/83/3
f 58/84/3 56/82/3 55/81/3
f 59/85/4 60/86/4 61/87/4
f 60/88/4 62/89/4 63/90/4
f 61/87/4 60/86/4 63/91/4
f 62/92/4 64/93/4 65/94/4
f 63/90/4 62/89/4 65/95/4
f 61/96/4 63/90/4 66/97/4
f 66/97/4 63/90/4 67/98/4
f 61/96/4 66/97/4 68/99/4
f 66/100/4 67/101/4 68/102/4
f 68/102/4 67/101/4 69/103/4
f 59/85/4 61/87/4 70/104/4
f 61/96/4 68/99/4 70/105/4
f 68/99/4 69/106/4 70/105/4
f 70/105/4 69/106/4 71/107/4
f 65/94/4 64/93/4 72/108/4
f 73/109/4 59/110/4 74/111/4
f 70/104/4 71/112/4 75/113/4
f 74/111/4 59/110/4 75/114/4
f 59/85/4 70/104/4 75/113/4
f 71/107/4 72/115/4 76/116/4
f 75/113/4 71/112/4 76/117/4
f 72/108/4 64/93/4 77/118/4
f 76/116/4 72/115/4 77/119/4
f 77/118/4 64/93/4 78/120/4
f 79/121/4 80/122/4 81/123/4
f 81/123/4 80/122/4 82/124/4
f 83/125/4 84/126/4 85/127/4
f 85/127/4 84/126/4 86/128/4
f 87/129/5 88/130/5 89/131/5
f 90/132/5 88/130/5 87/129/5
f 91/133/5 92/134/5 93/135/5
f 91/133/5 94/136/5 95/137/5
f 91/133/5 95/137/5 92/134/5
f 96/138/5 94/136/5 91/133/5
f 97/139/5 91/133/5 93/135/5
f 98/140/5 94/136/5 96/138/5
f 99/141/5 97/139/5 93/135/5
f 99/141/5 98/140/5 97/139/5
f 100/142/5 94/136/5 98/140/5
f 100/142/5 98/140/5 99/141/5
f 101/143/6 102/144/6 103/145/6
f 103/145/6 102/144/6 104/146/6
f 101/143/6 103/145/6 105/147/6
f 104/146/6 102/144/6 106/148/6
f 101/143/6 105/147/6 107/149/6
f 105/147/6 106/148/6 107/149/6
f 106/148/6 102/144/6 108/150/6
f 107/149/6 106/148/6 108/150/6
f 109/151/6 110/152/6 111/153/6
f 111/153/6 110/152/6 112/154/6
