# MagicaVoxel @ Ephtracy

# group
o 

# material
mtllib vytyazhka_vverh.mtl
usemtl palette

# normals
vn -1 0 0
vn 1 0 0
vn 0 0 1
vn 0 0 -1
vn 0 -1 0
vn 0 1 0

# texcoords
vt 0.978516 0.5
vt 0.990234 0.5

# verts
v -0.2 1.4 0.1
v -0.2 1.4 0
v -0.2 1.4 -1.2
v -0.2 1.4 -1.3
v -0.2 4.8 0.1
v -0.2 4.8 0
v -0.2 4.8 -1.2
v -0.2 4.8 -1.3
v -0.1 1.4 0.1
v -0.1 1.4 0
v -0.1 1.4 -1.2
v -0.1 1.4 -1.3
v -0.1 4.8 0.1
v -0.1 4.8 0
v -0.1 4.8 -1.2
v -0.1 4.8 -1.3
v 0 1.4 0
v 0 1.4 -0.1
v 0 1.4 -1.1
v 0 1.4 -1.2
v 0 4.8 0
v 0 4.8 -0.1
v 0 4.8 -1.1
v 0 4.8 -1.2
v 0.1 1.4 -0.1
v 0.1 1.4 -0.8
v 0.1 1.4 -0.9
v 0.1 1.4 -1.1
v 0.1 2.5 -0.8
v 0.1 2.5 -0.9
v 0.1 2.6 -0.8
v 0.1 2.6 -0.9
v 0.1 2.7 -0.8
v 0.1 2.7 -0.9
v 0.1 3 -0.8
v 0.1 3 -0.9
v 0.1 3.6 -0.4
v 0.1 3.6 -0.5
v 0.1 4.8 -0.1
v 0.1 4.8 -0.4
v 0.1 4.8 -0.5
v 0.1 4.8 -0.8
v 0.1 4.8 -0.9
v 0.1 4.8 -1.1
v 0.2 1.4 -0.8
v 0.2 1.4 -0.9
v 0.2 2.5 -0.8
v 0.2 2.5 -0.9
v 0.2 2.6 -0.8
v 0.2 2.6 -0.9
v 0.2 2.7 -0.8
v 0.2 2.7 -0.9
v 0.2 3 -0.8
v 0.2 3 -0.9
v 0.2 3.6 -0.4
v 0.2 3.6 -0.5
v 0.2 4.8 -0.4
v 0.2 4.8 -0.5
v 0.2 4.8 -0.8
v 0.2 4.8 -0.9
v -0.2 1.4 0.1
v -0.2 4.8 0.1
v -0.1 1.4 0.1
v -0.1 4.8 0.1
v -0.1 1.4 0
v -0.1 4.8 0
v 0 1.4 0
v 0 4.8 0
v 0 1.4 -0.1
v 0 4.8 -0.1
v 0.1 1.4 -0.1
v 0.1 4.8 -0.1
v 0.1 3.6 -0.4
v 0.1 4.8 -0.4
v 0.2 3.6 -0.4
v 0.2 4.8 -0.4
v 0.1 1.4 -0.8
v 0.1 2.5 -0.8
v 0.1 2.6 -0.8
v 0.1 2.7 -0.8
v 0.1 3 -0.8
v 0.1 4.8 -0.8
v 0.2 1.4 -0.8
v 0.2 2.5 -0.8
v 0.2 2.6 -0.8
v 0.2 2.7 -0.8
v 0.2 3 -0.8
v 0.2 4.8 -0.8
v 0.1 3.6 -0.5
v 0.1 4.8 -0.5
v 0.2 3.6 -0.5
v 0.2 4.8 -0.5
v 0.1 1.4 -0.9
v 0.1 2.5 -0.9
v 0.1 2.6 -0.9
v 0.1 2.7 -0.9
v 0.1 3 -0.9
v 0.1 4.8 -0.9
v 0.2 1.4 -0.9
v 0.2 2.5 -0.9
v 0.2 2.6 -0.9
v 0.2 2.7 -0.9
v 0.2 3 -0.9
v 0.2 4.8 -0.9
v 0 1.4 -1.1
v 0 4.8 -1.1
v 0.1 1.4 -1.1
v 0.1 4.8 -1.1
v -0.1 1.4 -1.2
v -0.1 4.8 -1.2
v 0 1.4 -1.2
v 0 4.8 -1.2
v -0.2 1.4 -1.3
v -0.2 4.8 -1.3
v -0.1 1.4 -1.3
v -0.1 4.8 -1.3
v -0.2 1.4 0.1
v -0.1 1.4 0.1
v -0.2 1.4 0
v -0.1 1.4 0
v 0 1.4 0
v 0 1.4 -0.1
v 0.1 1.4 -0.1
v 0.1 1.4 -0.8
v 0.2 1.4 -0.8
v 0.1 1.4 -0.9
v 0.2 1.4 -0.9
v 0 1.4 -1.1
v 0.1 1.4 -1.1
v -0.2 1.4 -1.2
v -0.1 1.4 -1.2
v 0 1.4 -1.2
v -0.2 1.4 -1.3
v -0.1 1.4 -1.3
v 0.1 2.6 -0.8
v 0.2 2.6 -0.8
v 0.1 2.6 -0.9
v 0.2 2.6 -0.9
v 0.1 3 -0.8
v 0.2 3 -0.8
v 0.1 3 -0.9
v 0.2 3 -0.9
v 0.1 3.6 -0.4
v 0.2 3.6 -0.4
v 0.1 3.6 -0.5
v 0.2 3.6 -0.5
v 0.1 2.5 -0.8
v 0.2 2.5 -0.8
v 0.1 2.5 -0.9
v 0.2 2.5 -0.9
v 0.1 2.7 -0.8
v 0.2 2.7 -0.8
v 0.1 2.7 -0.9
v 0.2 2.7 -0.9
v -0.2 4.8 0.1
v -0.1 4.8 0.1
v -0.2 4.8 0
v -0.1 4.8 0
v 0 4.8 0
v 0 4.8 -0.1
v 0.1 4.8 -0.1
v 0.1 4.8 -0.4
v 0.2 4.8 -0.4
v 0.1 4.8 -0.5
v 0.2 4.8 -0.5
v 0.1 4.8 -0.8
v 0.2 4.8 -0.8
v 0.1 4.8 -0.9
v 0.2 4.8 -0.9
v 0 4.8 -1.1
v 0.1 4.8 -1.1
v -0.2 4.8 -1.2
v -0.1 4.8 -1.2
v 0 4.8 -1.2
v -0.2 4.8 -1.3
v -0.1 4.8 -1.3

# faces
f 5/1/1 2/1/1 1/1/1
f 6/2/1 3/2/1 2/2/1
f 6/1/1 2/1/1 5/1/1
f 7/1/1 4/1/1 3/1/1
f 7/2/1 3/2/1 6/2/1
f 8/1/1 4/1/1 7/1/1
f 9/1/2 10/1/2 13/1/2
f 13/1/2 10/1/2 14/1/2
f 11/1/2 12/1/2 15/1/2
f 15/1/2 12/1/2 16/1/2
f 17/2/2 18/2/2 21/2/2
f 21/2/2 18/2/2 22/2/2
f 19/2/2 20/2/2 23/2/2
f 23/2/2 20/2/2 24/2/2
f 25/2/2 26/2/2 29/2/2
f 27/2/2 28/2/2 30/2/2
f 25/2/2 29/2/2 31/2/2
f 29/2/2 30/2/2 31/2/2
f 30/2/2 28/2/2 32/2/2
f 31/2/2 30/2/2 32/2/2
f 25/2/2 31/2/2 33/2/2
f 32/2/2 28/2/2 34/2/2
f 25/2/2 33/2/2 35/2/2
f 33/2/2 34/2/2 35/2/2
f 34/2/2 28/2/2 36/2/2
f 35/2/2 34/2/2 36/2/2
f 25/2/2 35/2/2 37/2/2
f 37/2/2 35/2/2 38/2/2
f 25/2/2 37/2/2 39/2/2
f 39/2/2 37/2/2 40/2/2
f 38/2/2 35/2/2 41/2/2
f 41/2/2 35/2/2 42/2/2
f 36/2/2 28/2/2 43/2/2
f 43/2/2 28/2/2 44/2/2
f 45/1/2 46/1/2 47/1/2
f 47/1/2 46/1/2 48/1/2
f 49/1/2 50/1/2 51/1/2
f 51/1/2 50/1/2 52/1/2
f 55/1/2 56/1/2 57/1/2
f 57/1/2 56/1/2 58/1/2
f 53/1/2 54/1/2 59/1/2
f 59/1/2 54/1/2 60/1/2
f 63/1/3 62/1/3 61/1/3
f 64/1/3 62/1/3 63/1/3
f 67/2/3 66/2/3 65/2/3
f 68/2/3 66/2/3 67/2/3
f 71/2/3 70/2/3 69/2/3
f 72/2/3 70/2/3 71/2/3
f 75/1/3 74/1/3 73/1/3
f 76/1/3 74/1/3 75/1/3
f 83/1/3 78/1/3 77/1/3
f 84/1/3 78/1/3 83/1/3
f 85/1/3 80/1/3 79/1/3
f 86/1/3 80/1/3 85/1/3
f 87/1/3 82/1/3 81/1/3
f 88/1/3 82/1/3 87/1/3
f 89/1/4 90/1/4 91/1/4
f 91/1/4 90/1/4 92/1/4
f 93/1/4 94/1/4 99/1/4
f 99/1/4 94/1/4 100/1/4
f 95/1/4 96/1/4 101/1/4
f 101/1/4 96/1/4 102/1/4
f 97/1/4 98/1/4 103/1/4
f 103/1/4 98/1/4 104/1/4
f 105/2/4 106/2/4 107/2/4
f 107/2/4 106/2/4 108/2/4
f 109/2/4 110/2/4 111/2/4
f 111/2/4 110/2/4 112/2/4
f 113/1/4 114/1/4 115/1/4
f 115/1/4 114/1/4 116/1/4
f 119/1/5 118/1/5 117/1/5
f 120/1/5 118/1/5 119/1/5
f 122/2/5 120/2/5 119/2/5
f 122/2/5 121/2/5 120/2/5
f 124/2/5 123/2/5 122/2/5
f 126/2/5 124/2/5 122/2/5
f 126/1/5 125/1/5 124/1/5
f 127/1/5 125/1/5 126/1/5
f 128/2/5 122/2/5 119/2/5
f 128/2/5 126/2/5 122/2/5
f 129/2/5 126/2/5 128/2/5
f 130/2/5 128/2/5 119/2/5
f 131/2/5 128/2/5 130/2/5
f 132/2/5 128/2/5 131/2/5
f 133/1/5 131/1/5 130/1/5
f 134/1/5 131/1/5 133/1/5
f 137/1/5 136/1/5 135/1/5
f 138/1/5 136/1/5 137/1/5
f 141/1/5 140/1/5 139/1/5
f 142/1/5 140/1/5 141/1/5
f 145/1/5 144/1/5 143/1/5
f 146/1/5 144/1/5 145/1/5
f 147/1/6 148/1/6 149/1/6
f 149/1/6 148/1/6 150/1/6
f 151/1/6 152/1/6 153/1/6
f 153/1/6 152/1/6 154/1/6
f 155/1/6 156/1/6 157/1/6
f 157/1/6 156/1/6 158/1/6
f 157/2/6 158/2/6 160/2/6
f 158/2/6 159/2/6 160/2/6
f 160/2/6 161/2/6 162/2/6
f 160/2/6 162/2/6 164/2/6
f 162/1/6 163/1/6 164/1/6
f 164/1/6 163/1/6 165/1/6
f 160/2/6 164/2/6 166/2/6
f 160/2/6 166/2/6 168/2/6
f 166/1/6 167/1/6 168/1/6
f 168/1/6 167/1/6 169/1/6
f 157/2/6 160/2/6 170/2/6
f 160/2/6 168/2/6 170/2/6
f 170/2/6 168/2/6 171/2/6
f 157/2/6 170/2/6 172/2/6
f 172/2/6 170/2/6 173/2/6
f 173/2/6 170/2/6 174/2/6
f 172/1/6 173/1/6 175/1/6
f 175/1/6 173/1/6 176/1/6
