# MagicaVoxel @ Ephtracy

# group
o 

# material
mtllib potato.mtl
usemtl palette

# normals
vn -1 0 0
vn 1 0 0
vn 0 0 1
vn 0 0 -1
vn 0 -1 0
vn 0 1 0

# texcoords
vt 0.00585938 0.5
vt 0.00976563 0.5
vt 0.0136719 0.5
vt 0.0332031 0.5
vt 0.0644531 0.5
vt 0.201172 0.5
vt 0.205078 0.5
vt 0.369141 0.5
vt 0.373047 0.5
vt 0.533203 0.5
vt 0.537109 0.5

# verts
v 0.8 2.4 -1.5
v 0.8 2.4 -1.9
v 0.8 2.6 -1.5
v 0.8 2.6 -1.9
v 0.9 2.3 -1.6
v 0.9 2.3 -1.7
v 0.9 2.3 -1.9
v 0.9 2.4 -1.4
v 0.9 2.4 -1.5
v 0.9 2.4 -1.6
v 0.9 2.4 -1.7
v 0.9 2.4 -1.9
v 0.9 2.4 -2.1
v 0.9 2.6 -1.4
v 0.9 2.6 -1.5
v 0.9 2.6 -1.7
v 0.9 2.6 -1.9
v 0.9 2.6 -2
v 0.9 2.6 -2.1
v 0.9 2.7 -1.5
v 0.9 2.7 -1.7
v 0.9 2.7 -1.9
v 0.9 2.7 -2
v 1 2.3 -1.4
v 1 2.3 -1.5
v 1 2.3 -1.6
v 1 2.3 -1.9
v 1 2.3 -2
v 1 2.4 -1.2
v 1 2.4 -1.4
v 1 2.4 -1.5
v 1 2.4 -1.6
v 1 2.4 -1.9
v 1 2.4 -2
v 1 2.4 -2.1
v 1 2.4 -2.2
v 1 2.6 -1.2
v 1 2.6 -1.4
v 1 2.6 -1.5
v 1 2.6 -2
v 1 2.6 -2.1
v 1 2.6 -2.2
v 1 2.7 -1.4
v 1 2.7 -1.5
v 1 2.7 -1.6
v 1 2.7 -1.7
v 1 2.7 -1.9
v 1 2.7 -2
v 1 2.7 -2.1
v 1 2.8 -1.5
v 1 2.8 -1.6
v 1 2.8 -1.7
v 1 2.8 -2
v 1.1 2.3 -1.3
v 1.1 2.3 -1.4
v 1.1 2.3 -2
v 1.1 2.3 -2.1
v 1.1 2.4 -1.1
v 1.1 2.4 -1.2
v 1.1 2.4 -1.3
v 1.1 2.4 -1.4
v 1.1 2.4 -2
v 1.1 2.4 -2.1
v 1.1 2.6 -1.1
v 1.1 2.6 -1.2
v 1.1 2.6 -1.4
v 1.1 2.6 -2.1
v 1.1 2.6 -2.2
v 1.1 2.7 -1.2
v 1.1 2.7 -1.4
v 1.1 2.7 -1.5
v 1.1 2.7 -2
v 1.1 2.7 -2.1
v 1.1 2.7 -2.2
v 1.1 2.8 -1.4
v 1.1 2.8 -1.5
v 1.1 2.8 -2
v 1.1 2.8 -2.1
v 1.2 2.3 -1.2
v 1.2 2.3 -1.3
v 1.2 2.4 -1
v 1.2 2.4 -1.1
v 1.2 2.4 -1.2
v 1.2 2.4 -1.3
v 1.2 2.6 -1
v 1.2 2.6 -1.1
v 1.2 2.6 -1.2
v 1.2 2.7 -1.1
v 1.2 2.7 -1.2
v 1.2 2.7 -1.3
v 1.2 2.7 -1.4
v 1.2 2.8 -1.3
v 1.2 2.8 -1.4
v 1.3 2.3 -1.1
v 1.3 2.3 -1.2
v 1.3 2.4 -1.1
v 1.3 2.4 -1.2
v 1.4 2.3 -1.1
v 1.4 2.3 -1.2
v 1.4 2.4 -1.1
v 1.4 2.4 -1.2
v 1.4 2.6 -2.1
v 1.4 2.6 -2.2
v 1.4 2.7 -2
v 1.4 2.7 -2.1
v 1.4 2.7 -2.2
v 1.4 2.8 -2
v 1.4 2.8 -2.1
v 1.5 2.3 -1.2
v 1.5 2.3 -1.3
v 1.5 2.3 -2
v 1.5 2.3 -2.1
v 1.5 2.4 -1
v 1.5 2.4 -1.1
v 1.5 2.4 -1.2
v 1.5 2.4 -1.3
v 1.5 2.4 -2
v 1.5 2.4 -2.1
v 1.5 2.4 -2.2
v 1.5 2.6 -1
v 1.5 2.6 -1.1
v 1.5 2.6 -1.2
v 1.5 2.6 -2.1
v 1.5 2.6 -2.2
v 1.5 2.7 -1.1
v 1.5 2.7 -1.2
v 1.6 2.3 -1.3
v 1.6 2.3 -1.5
v 1.6 2.3 -1.8
v 1.6 2.3 -2
v 1.6 2.4 -1.1
v 1.6 2.4 -1.2
v 1.6 2.4 -1.3
v 1.6 2.4 -1.4
v 1.6 2.4 -1.5
v 1.6 2.4 -1.8
v 1.6 2.4 -1.9
v 1.6 2.4 -2
v 1.6 2.6 -1.1
v 1.6 2.6 -1.2
v 1.6 2.6 -1.3
v 1.6 2.6 -1.4
v 1.6 2.6 -1.9
v 1.6 2.6 -2
v 1.6 2.6 -2.1
v 1.6 2.7 -1.2
v 1.6 2.7 -1.3
v 1.6 2.7 -1.4
v 1.6 2.7 -1.5
v 1.6 2.7 -1.8
v 1.6 2.7 -1.9
v 1.6 2.7 -2
v 1.6 2.7 -2.1
v 1.6 2.8 -1.3
v 1.6 2.8 -1.5
v 1.6 2.8 -1.8
v 1.6 2.8 -2
v 1.7 2.3 -1.5
v 1.7 2.3 -1.6
v 1.7 2.3 -1.8
v 1.7 2.4 -1.2
v 1.7 2.4 -1.4
v 1.7 2.4 -1.5
v 1.7 2.4 -1.6
v 1.7 2.4 -1.8
v 1.7 2.4 -1.9
v 1.7 2.4 -2
v 1.7 2.4 -2.1
v 1.7 2.6 -1.2
v 1.7 2.6 -1.4
v 1.7 2.6 -1.5
v 1.7 2.6 -1.6
v 1.7 2.6 -1.8
v 1.7 2.6 -1.9
v 1.7 2.6 -2
v 1.7 2.6 -2.1
v 1.7 2.7 -1.4
v 1.7 2.7 -1.5
v 1.7 2.7 -1.8
v 1.7 2.7 -1.9
v 1.7 2.8 -1.5
v 1.7 2.8 -1.6
v 1.7 2.8 -1.8
v 1.8 2.4 -1.4
v 1.8 2.4 -1.5
v 1.8 2.4 -1.8
v 1.8 2.4 -1.9
v 1.8 2.6 -1.4
v 1.8 2.6 -1.5
v 1.8 2.6 -1.8
v 1.8 2.6 -1.9
v 1.2 2.4 -1
v 1.2 2.6 -1
v 1.5 2.4 -1
v 1.5 2.6 -1
v 1.1 2.4 -1.1
v 1.1 2.6 -1.1
v 1.2 2.4 -1.1
v 1.2 2.6 -1.1
v 1.2 2.7 -1.1
v 1.3 2.3 -1.1
v 1.3 2.4 -1.1
v 1.4 2.3 -1.1
v 1.4 2.4 -1.1
v 1.5 2.4 -1.1
v 1.5 2.6 -1.1
v 1.5 2.7 -1.1
v 1.6 2.4 -1.1
v 1.6 2.6 -1.1
v 1 2.4 -1.2
v 1 2.6 -1.2
v 1.1 2.4 -1.2
v 1.1 2.6 -1.2
v 1.1 2.7 -1.2
v 1.2 2.3 -1.2
v 1.2 2.4 -1.2
v 1.2 2.6 -1.2
v 1.2 2.7 -1.2
v 1.3 2.3 -1.2
v 1.3 2.4 -1.2
v 1.4 2.3 -1.2
v 1.4 2.4 -1.2
v 1.5 2.3 -1.2
v 1.5 2.4 -1.2
v 1.5 2.6 -1.2
v 1.5 2.7 -1.2
v 1.6 2.4 -1.2
v 1.6 2.6 -1.2
v 1.6 2.7 -1.2
v 1.7 2.4 -1.2
v 1.7 2.6 -1.2
v 1.1 2.3 -1.3
v 1.1 2.4 -1.3
v 1.2 2.3 -1.3
v 1.2 2.4 -1.3
v 1.2 2.7 -1.3
v 1.2 2.8 -1.3
v 1.3 2.7 -1.3
v 1.3 2.8 -1.3
v 1.5 2.3 -1.3
v 1.5 2.4 -1.3
v 1.6 2.3 -1.3
v 1.6 2.4 -1.3
v 1.6 2.7 -1.3
v 1.6 2.8 -1.3
v 0.9 2.4 -1.4
v 0.9 2.6 -1.4
v 1 2.3 -1.4
v 1 2.4 -1.4
v 1 2.6 -1.4
v 1 2.7 -1.4
v 1.1 2.3 -1.4
v 1.1 2.4 -1.4
v 1.1 2.6 -1.4
v 1.1 2.7 -1.4
v 1.1 2.8 -1.4
v 1.2 2.7 -1.4
v 1.2 2.8 -1.4
v 1.6 2.6 -1.4
v 1.6 2.7 -1.4
v 1.7 2.4 -1.4
v 1.7 2.6 -1.4
v 1.7 2.7 -1.4
v 1.8 2.4 -1.4
v 1.8 2.6 -1.4
v 0.8 2.4 -1.5
v 0.8 2.6 -1.5
v 0.9 2.4 -1.5
v 0.9 2.6 -1.5
v 0.9 2.7 -1.5
v 1 2.6 -1.5
v 1 2.7 -1.5
v 1 2.8 -1.5
v 1.1 2.7 -1.5
v 1.1 2.8 -1.5
v 1.6 2.3 -1.5
v 1.6 2.4 -1.5
v 1.6 2.7 -1.5
v 1.6 2.8 -1.5
v 1.7 2.3 -1.5
v 1.7 2.4 -1.5
v 1.7 2.7 -1.5
v 1.7 2.8 -1.5
v 0.9 2.3 -1.6
v 0.9 2.4 -1.6
v 1 2.3 -1.6
v 1 2.4 -1.6
v 1.6 2.3 -1.8
v 1.6 2.4 -1.8
v 1.6 2.7 -1.8
v 1.6 2.8 -1.8
v 1.7 2.3 -1.8
v 1.7 2.4 -1.8
v 1.7 2.7 -1.8
v 1.7 2.8 -1.8
v 0.8 2.4 -1.9
v 0.8 2.6 -1.9
v 0.9 2.3 -1.9
v 0.9 2.4 -1.9
v 0.9 2.6 -1.9
v 1 2.3 -1.9
v 1 2.4 -1.9
v 1.6 2.6 -1.9
v 1.6 2.7 -1.9
v 1.7 2.4 -1.9
v 1.7 2.6 -1.9
v 1.7 2.7 -1.9
v 1.8 2.4 -1.9
v 1.8 2.6 -1.9
v 0.9 2.6 -2
v 0.9 2.7 -2
v 1 2.3 -2
v 1 2.4 -2
v 1 2.6 -2
v 1 2.7 -2
v 1 2.8 -2
v 1.1 2.3 -2
v 1.1 2.4 -2
v 1.1 2.7 -2
v 1.1 2.8 -2
v 1.4 2.7 -2
v 1.4 2.8 -2
v 1.5 2.3 -2
v 1.5 2.4 -2
v 1.5 2.7 -2
v 1.6 2.3 -2
v 1.6 2.4 -2
v 1.6 2.7 -2
v 1.6 2.8 -2
v 0.9 2.4 -2.1
v 0.9 2.6 -2.1
v 1 2.4 -2.1
v 1 2.6 -2.1
v 1 2.7 -2.1
v 1.1 2.3 -2.1
v 1.1 2.4 -2.1
v 1.1 2.6 -2.1
v 1.1 2.7 -2.1
v 1.1 2.8 -2.1
v 1.2 2.3 -2.1
v 1.2 2.4 -2.1
v 1.2 2.7 -2.1
v 1.2 2.8 -2.1
v 1.3 2.3 -2.1
v 1.3 2.4 -2.1
v 1.3 2.7 -2.1
v 1.3 2.8 -2.1
v 1.4 2.3 -2.1
v 1.4 2.4 -2.1
v 1.4 2.6 -2.1
v 1.4 2.7 -2.1
v 1.4 2.8 -2.1
v 1.5 2.3 -2.1
v 1.5 2.4 -2.1
v 1.5 2.6 -2.1
v 1.5 2.7 -2.1
v 1.6 2.4 -2.1
v 1.6 2.6 -2.1
v 1.6 2.7 -2.1
v 1.7 2.4 -2.1
v 1.7 2.6 -2.1
v 1 2.4 -2.2
v 1 2.6 -2.2
v 1.1 2.4 -2.2
v 1.1 2.6 -2.2
v 1.1 2.7 -2.2
v 1.4 2.6 -2.2
v 1.4 2.7 -2.2
v 1.5 2.4 -2.2
v 1.5 2.6 -2.2
v 1.3 2.3 -1.1
v 1.4 2.3 -1.1
v 1.2 2.3 -1.2
v 1.3 2.3 -1.2
v 1.4 2.3 -1.2
v 1.5 2.3 -1.2
v 1.1 2.3 -1.3
v 1.2 2.3 -1.3
v 1.3 2.3 -1.3
v 1.5 2.3 -1.3
v 1.6 2.3 -1.3
v 1 2.3 -1.4
v 1.1 2.3 -1.4
v 1.2 2.3 -1.4
v 1.3 2.3 -1.4
v 1.5 2.3 -1.4
v 1 2.3 -1.5
v 1.1 2.3 -1.5
v 1.2 2.3 -1.5
v 1.3 2.3 -1.5
v 1.4 2.3 -1.5
v 1.5 2.3 -1.5
v 1.6 2.3 -1.5
v 1.7 2.3 -1.5
v 0.9 2.3 -1.6
v 1 2.3 -1.6
v 1.1 2.3 -1.6
v 1.2 2.3 -1.6
v 1.3 2.3 -1.6
v 1.4 2.3 -1.6
v 1.5 2.3 -1.6
v 1.6 2.3 -1.6
v 1.7 2.3 -1.6
v 0.9 2.3 -1.7
v 1 2.3 -1.7
v 1.1 2.3 -1.7
v 1.2 2.3 -1.7
v 1.3 2.3 -1.7
v 1.4 2.3 -1.7
v 1.5 2.3 -1.7
v 1.6 2.3 -1.7
v 1.1 2.3 -1.8
v 1.2 2.3 -1.8
v 1.3 2.3 -1.8
v 1.4 2.3 -1.8
v 1.5 2.3 -1.8
v 1.6 2.3 -1.8
v 1.7 2.3 -1.8
v 0.9 2.3 -1.9
v 1 2.3 -1.9
v 1.1 2.3 -1.9
v 1.2 2.3 -1.9
v 1.3 2.3 -1.9
v 1.4 2.3 -1.9
v 1.5 2.3 -1.9
v 1 2.3 -2
v 1.1 2.3 -2
v 1.2 2.3 -2
v 1.3 2.3 -2
v 1.4 2.3 -2
v 1.5 2.3 -2
v 1.6 2.3 -2
v 1.1 2.3 -2.1
v 1.2 2.3 -2.1
v 1.3 2.3 -2.1
v 1.4 2.3 -2.1
v 1.5 2.3 -2.1
v 1.2 2.4 -1
v 1.5 2.4 -1
v 1.1 2.4 -1.1
v 1.2 2.4 -1.1
v 1.3 2.4 -1.1
v 1.4 2.4 -1.1
v 1.5 2.4 -1.1
v 1.6 2.4 -1.1
v 1 2.4 -1.2
v 1.1 2.4 -1.2
v 1.2 2.4 -1.2
v 1.3 2.4 -1.2
v 1.4 2.4 -1.2
v 1.5 2.4 -1.2
v 1.6 2.4 -1.2
v 1.7 2.4 -1.2
v 1.1 2.4 -1.3
v 1.2 2.4 -1.3
v 1.5 2.4 -1.3
v 1.6 2.4 -1.3
v 0.9 2.4 -1.4
v 1 2.4 -1.4
v 1.1 2.4 -1.4
v 1.6 2.4 -1.4
v 1.7 2.4 -1.4
v 1.8 2.4 -1.4
v 0.8 2.4 -1.5
v 0.9 2.4 -1.5
v 1 2.4 -1.5
v 1.6 2.4 -1.5
v 1.7 2.4 -1.5
v 1.8 2.4 -1.5
v 0.9 2.4 -1.6
v 1 2.4 -1.6
v 1.7 2.4 -1.6
v 0.9 2.4 -1.7
v 1.6 2.4 -1.8
v 1.7 2.4 -1.8
v 1.8 2.4 -1.8
v 0.8 2.4 -1.9
v 0.9 2.4 -1.9
v 1 2.4 -1.9
v 1.6 2.4 -1.9
v 1.7 2.4 -1.9
v 1.8 2.4 -1.9
v 1 2.4 -2
v 1.1 2.4 -2
v 1.5 2.4 -2
v 1.6 2.4 -2
v 1.7 2.4 -2
v 0.9 2.4 -2.1
v 1 2.4 -2.1
v 1.1 2.4 -2.1
v 1.2 2.4 -2.1
v 1.3 2.4 -2.1
v 1.4 2.4 -2.1
v 1.5 2.4 -2.1
v 1.6 2.4 -2.1
v 1.7 2.4 -2.1
v 1 2.4 -2.2
v 1.1 2.4 -2.2
v 1.5 2.4 -2.2
v 1.2 2.6 -1
v 1.5 2.6 -1
v 1.1 2.6 -1.1
v 1.2 2.6 -1.1
v 1.5 2.6 -1.1
v 1.6 2.6 -1.1
v 1 2.6 -1.2
v 1.1 2.6 -1.2
v 1.2 2.6 -1.2
v 1.5 2.6 -1.2
v 1.6 2.6 -1.2
v 1.7 2.6 -1.2
v 1.6 2.6 -1.3
v 0.9 2.6 -1.4
v 1 2.6 -1.4
v 1.1 2.6 -1.4
v 1.6 2.6 -1.4
v 1.7 2.6 -1.4
v 1.8 2.6 -1.4
v 0.8 2.6 -1.5
v 0.9 2.6 -1.5
v 1 2.6 -1.5
v 1.7 2.6 -1.5
v 1.8 2.6 -1.5
v 1.7 2.6 -1.6
v 0.9 2.6 -1.7
v 1.7 2.6 -1.8
v 1.8 2.6 -1.8
v 0.8 2.6 -1.9
v 0.9 2.6 -1.9
v 1.6 2.6 -1.9
v 1.7 2.6 -1.9
v 1.8 2.6 -1.9
v 0.9 2.6 -2
v 1 2.6 -2
v 1.6 2.6 -2
v 1.7 2.6 -2
v 0.9 2.6 -2.1
v 1 2.6 -2.1
v 1.1 2.6 -2.1
v 1.4 2.6 -2.1
v 1.5 2.6 -2.1
v 1.6 2.6 -2.1
v 1.7 2.6 -2.1
v 1 2.6 -2.2
v 1.1 2.6 -2.2
v 1.4 2.6 -2.2
v 1.5 2.6 -2.2
v 1.2 2.7 -1.1
v 1.5 2.7 -1.1
v 1.1 2.7 -1.2
v 1.2 2.7 -1.2
v 1.3 2.7 -1.2
v 1.5 2.7 -1.2
v 1.6 2.7 -1.2
v 1.2 2.7 -1.3
v 1.3 2.7 -1.3
v 1.6 2.7 -1.3
v 1 2.7 -1.4
v 1.1 2.7 -1.4
v 1.2 2.7 -1.4
v 1.6 2.7 -1.4
v 1.7 2.7 -1.4
v 0.9 2.7 -1.5
v 1 2.7 -1.5
v 1.1 2.7 -1.5
v 1.6 2.7 -1.5
v 1.7 2.7 -1.5
v 1 2.7 -1.6
v 0.9 2.7 -1.7
v 1 2.7 -1.7
v 1.6 2.7 -1.8
v 1.7 2.7 -1.8
v 0.9 2.7 -1.9
v 1 2.7 -1.9
v 1.6 2.7 -1.9
v 1.7 2.7 -1.9
v 0.9 2.7 -2
v 1 2.7 -2
v 1.1 2.7 -2
v 1.4 2.7 -2
v 1.5 2.7 -2
v 1.6 2.7 -2
v 1 2.7 -2.1
v 1.1 2.7 -2.1
v 1.2 2.7 -2.1
v 1.3 2.7 -2.1
v 1.4 2.7 -2.1
v 1.5 2.7 -2.1
v 1.6 2.7 -2.1
v 1.1 2.7 -2.2
v 1.4 2.7 -2.2
v 1.2 2.8 -1.3
v 1.3 2.8 -1.3
v 1.6 2.8 -1.3
v 1.1 2.8 -1.4
v 1.2 2.8 -1.4
v 1.3 2.8 -1.4
v 1.5 2.8 -1.4
v 1 2.8 -1.5
v 1.1 2.8 -1.5
v 1.2 2.8 -1.5
v 1.3 2.8 -1.5
v 1.4 2.8 -1.5
v 1.5 2.8 -1.5
v 1.6 2.8 -1.5
v 1.7 2.8 -1.5
v 1 2.8 -1.6
v 1.1 2.8 -1.6
v 1.2 2.8 -1.6
v 1.3 2.8 -1.6
v 1.4 2.8 -1.6
v 1.5 2.8 -1.6
v 1.6 2.8 -1.6
v 1.7 2.8 -1.6
v 1 2.8 -1.7
v 1.1 2.8 -1.7
v 1.2 2.8 -1.7
v 1.3 2.8 -1.7
v 1.4 2.8 -1.7
v 1.5 2.8 -1.7
v 1.6 2.8 -1.7
v 1.1 2.8 -1.8
v 1.2 2.8 -1.8
v 1.3 2.8 -1.8
v 1.4 2.8 -1.8
v 1.5 2.8 -1.8
v 1.6 2.8 -1.8
v 1.7 2.8 -1.8
v 1.1 2.8 -1.9
v 1.2 2.8 -1.9
v 1.3 2.8 -1.9
v 1.4 2.8 -1.9
v 1.5 2.8 -1.9
v 1 2.8 -2
v 1.1 2.8 -2
v 1.2 2.8 -2
v 1.3 2.8 -2
v 1.4 2.8 -2
v 1.6 2.8 -2
v 1.1 2.8 -2.1
v 1.2 2.8 -2.1
v 1.3 2.8 -2.1
v 1.4 2.8 -2.1

# faces
f 3/11/1 2/11/1 1/11/1
f 4/11/1 2/11/1 3/11/1
f 10/9/1 6/9/1 5/9/1
f 11/7/1 7/7/1 6/7/1
f 11/9/1 6/9/1 10/9/1
f 12/7/1 7/7/1 11/7/1
f 14/11/1 9/11/1 8/11/1
f 15/11/1 9/11/1 14/11/1
f 17/9/1 13/9/1 12/9/1
f 18/9/1 13/9/1 17/9/1
f 19/9/1 13/9/1 18/9/1
f 20/9/1 16/9/1 15/9/1
f 21/7/1 17/7/1 16/7/1
f 21/9/1 16/9/1 20/9/1
f 22/9/1 18/9/1 17/9/1
f 22/7/1 17/7/1 21/7/1
f 23/9/1 18/9/1 22/9/1
f 30/9/1 25/9/1 24/9/1
f 31/7/1 26/7/1 25/7/1
f 31/9/1 25/9/1 30/9/1
f 32/7/1 26/7/1 31/7/1
f 33/6/1 28/6/1 27/6/1
f 34/6/1 28/6/1 33/6/1
f 37/11/1 30/11/1 29/11/1
f 38/11/1 30/11/1 37/11/1
f 41/9/1 36/9/1 35/9/1
f 42/9/1 36/9/1 41/9/1
f 43/9/1 39/9/1 38/9/1
f 44/9/1 39/9/1 43/9/1
f 48/6/1 41/6/1 40/6/1
f 49/6/1 41/6/1 48/6/1
f 50/7/1 45/7/1 44/7/1
f 51/8/1 46/8/1 45/8/1
f 51/7/1 45/7/1 50/7/1
f 52/6/1 47/6/1 46/6/1
f 52/8/1 46/8/1 51/8/1
f 52/6/1 48/6/1 47/6/1
f 53/6/1 48/6/1 52/6/1
f 60/9/1 55/9/1 54/9/1
f 61/9/1 55/9/1 60/9/1
f 62/6/1 57/6/1 56/6/1
f 63/6/1 57/6/1 62/6/1
f 64/11/1 59/11/1 58/11/1
f 65/11/1 59/11/1 64/11/1
f 69/9/1 66/9/1 65/9/1
f 70/9/1 66/9/1 69/9/1
f 73/6/1 68/6/1 67/6/1
f 74/6/1 68/6/1 73/6/1
f 75/7/1 71/7/1 70/7/1
f 76/7/1 71/7/1 75/7/1
f 77/6/1 73/6/1 72/6/1
f 78/6/1 73/6/1 77/6/1
f 83/9/1 80/9/1 79/9/1
f 84/9/1 80/9/1 83/9/1
f 85/11/1 82/11/1 81/11/1
f 86/11/1 82/11/1 85/11/1
f 88/9/1 87/9/1 86/9/1
f 89/9/1 87/9/1 88/9/1
f 92/7/1 91/7/1 90/7/1
f 93/7/1 91/7/1 92/7/1
f 96/9/1 95/9/1 94/9/1
f 97/9/1 95/9/1 96/9/1
f 98/9/2 99/9/2 100/9/2
f 100/9/2 99/9/2 101/9/2
f 102/6/2 103/6/2 105/6/2
f 105/6/2 103/6/2 106/6/2
f 104/2/2 105/2/2 107/2/2
f 107/2/2 105/2/2 108/2/2
f 109/7/2 110/7/2 115/7/2
f 115/7/2 110/7/2 116/7/2
f 111/3/2 112/3/2 117/3/2
f 117/3/2 112/3/2 118/3/2
f 113/11/2 114/11/2 120/11/2
f 120/11/2 114/11/2 121/11/2
f 118/6/2 119/6/2 123/6/2
f 123/6/2 119/6/2 124/6/2
f 121/9/2 122/9/2 125/9/2
f 125/9/2 122/9/2 126/9/2
f 127/6/2 128/6/2 133/6/2
f 133/6/2 128/6/2 134/6/2
f 134/6/2 128/6/2 135/6/2
f 129/4/2 130/4/2 136/4/2
f 136/4/2 130/4/2 137/4/2
f 137/4/2 130/4/2 138/4/2
f 131/9/2 132/9/2 139/9/2
f 139/9/2 132/9/2 140/9/2
f 140/7/2 141/7/2 146/7/2
f 141/6/2 142/6/2 147/6/2
f 146/7/2 141/7/2 147/7/2
f 147/6/2 142/6/2 148/6/2
f 143/4/2 144/4/2 151/4/2
f 144/6/2 145/6/2 152/6/2
f 151/4/2 144/4/2 152/4/2
f 152/6/2 145/6/2 153/6/2
f 148/6/2 149/6/2 154/6/2
f 147/6/2 148/6/2 154/6/2
f 154/6/2 149/6/2 155/6/2
f 150/4/2 151/4/2 156/4/2
f 151/4/2 152/4/2 156/4/2
f 156/4/2 152/4/2 157/4/2
f 158/8/2 159/8/2 163/8/2
f 159/2/2 160/2/2 164/2/2
f 163/8/2 159/8/2 164/8/2
f 164/2/2 160/2/2 165/2/2
f 161/9/2 162/9/2 169/9/2
f 169/9/2 162/9/2 170/9/2
f 166/6/2 167/6/2 174/6/2
f 167/7/2 168/7/2 175/7/2
f 174/6/2 167/6/2 175/6/2
f 175/7/2 168/7/2 176/7/2
f 170/6/2 171/6/2 177/6/2
f 171/8/2 172/8/2 178/8/2
f 177/6/2 171/6/2 178/6/2
f 173/2/2 174/2/2 179/2/2
f 172/2/2 173/2/2 179/2/2
f 179/2/2 174/2/2 180/2/2
f 178/8/2 172/8/2 181/8/2
f 172/2/2 179/2/2 182/2/2
f 181/8/2 172/8/2 182/8/2
f 182/2/2 179/2/2 183/2/2
f 184/9/2 185/9/2 188/9/2
f 185/6/2 186/6/2 189/6/2
f 188/9/2 185/9/2 189/9/2
f 186/7/2 187/7/2 190/7/2
f 189/6/2 186/6/2 190/6/2
f 190/7/2 187/7/2 191/7/2
f 194/11/3 193/11/3 192/11/3
f 195/11/3 193/11/3 194/11/3
f 198/11/3 197/11/3 196/11/3
f 199/11/3 197/11/3 198/11/3
f 203/9/3 202/9/3 201/9/3
f 204/9/3 202/9/3 203/9/3
f 206/9/3 200/9/3 199/9/3
f 207/9/3 200/9/3 206/9/3
f 208/9/3 206/9/3 205/9/3
f 209/9/3 206/9/3 208/9/3
f 212/11/3 211/11/3 210/11/3
f 213/11/3 211/11/3 212/11/3
f 217/9/3 214/9/3 213/9/3
f 218/9/3 214/9/3 217/9/3
f 219/9/3 216/9/3 215/9/3
f 220/9/3 216/9/3 219/9/3
f 223/7/3 222/7/3 221/7/3
f 224/7/3 222/7/3 223/7/3
f 228/7/3 226/7/3 225/7/3
f 229/7/3 226/7/3 228/7/3
f 230/9/3 228/9/3 227/9/3
f 231/9/3 228/9/3 230/9/3
f 234/9/3 233/9/3 232/9/3
f 235/9/3 233/9/3 234/9/3
f 238/7/3 237/7/3 236/7/3
f 239/7/3 237/7/3 238/7/3
f 242/6/3 241/6/3 240/6/3
f 243/6/3 241/6/3 242/6/3
f 244/6/3 239/6/3 238/6/3
f 245/6/3 239/6/3 244/6/3
f 249/11/3 247/11/3 246/11/3
f 250/11/3 247/11/3 249/11/3
f 252/9/3 249/9/3 248/9/3
f 253/9/3 249/9/3 252/9/3
f 254/9/3 251/9/3 250/9/3
f 255/9/3 251/9/3 254/9/3
f 257/7/3 256/7/3 255/7/3
f 258/7/3 256/7/3 257/7/3
f 262/6/3 260/6/3 259/6/3
f 263/6/3 260/6/3 262/6/3
f 264/9/3 262/9/3 261/9/3
f 265/9/3 262/9/3 264/9/3
f 268/11/3 267/11/3 266/11/3
f 269/11/3 267/11/3 268/11/3
f 271/9/3 270/9/3 269/9/3
f 272/9/3 270/9/3 271/9/3
f 274/7/3 273/7/3 272/7/3
f 275/7/3 273/7/3 274/7/3
f 280/8/3 277/8/3 276/8/3
f 281/8/3 277/8/3 280/8/3
f 282/8/3 279/8/3 278/8/3
f 283/8/3 279/8/3 282/8/3
f 286/9/3 285/9/3 284/9/3
f 287/9/3 285/9/3 286/9/3
f 288/2/4 289/2/4 292/2/4
f 292/2/4 289/2/4 293/2/4
f 290/2/4 291/2/4 294/2/4
f 294/2/4 291/2/4 295/2/4
f 296/11/4 297/11/4 299/11/4
f 299/11/4 297/11/4 300/11/4
f 298/7/4 299/7/4 301/7/4
f 301/7/4 299/7/4 302/7/4
f 303/2/4 304/2/4 306/2/4
f 306/2/4 304/2/4 307/2/4
f 305/7/4 306/7/4 308/7/4
f 308/7/4 306/7/4 309/7/4
f 310/9/4 311/9/4 314/9/4
f 314/9/4 311/9/4 315/9/4
f 312/6/4 313/6/4 317/6/4
f 317/6/4 313/6/4 318/6/4
f 315/6/4 316/6/4 319/6/4
f 319/6/4 316/6/4 320/6/4
f 321/4/4 322/4/4 325/4/4
f 323/4/4 324/4/4 326/4/4
f 326/4/4 324/4/4 327/4/4
f 325/4/4 322/4/4 328/4/4
f 328/4/4 322/4/4 329/4/4
f 330/9/4 331/9/4 332/9/4
f 332/9/4 331/9/4 333/9/4
f 333/6/4 334/6/4 337/6/4
f 337/6/4 334/6/4 338/6/4
f 335/6/4 336/6/4 340/6/4
f 340/6/4 336/6/4 341/6/4
f 338/6/4 339/6/4 342/6/4
f 342/6/4 339/6/4 343/6/4
f 340/1/4 341/1/4 344/1/4
f 344/1/4 341/1/4 345/1/4
f 342/1/4 343/1/4 346/1/4
f 346/1/4 343/1/4 347/1/4
f 344/2/4 345/2/4 348/2/4
f 348/2/4 345/2/4 349/2/4
f 346/2/4 347/2/4 351/2/4
f 351/2/4 347/2/4 352/2/4
f 348/3/4 349/3/4 353/3/4
f 353/3/4 349/3/4 354/3/4
f 350/3/4 351/3/4 355/3/4
f 355/3/4 351/3/4 356/3/4
f 354/6/4 355/6/4 357/6/4
f 355/6/4 356/6/4 357/6/4
f 357/6/4 356/6/4 358/6/4
f 358/6/4 356/6/4 359/6/4
f 357/7/4 358/7/4 360/7/4
f 360/7/4 358/7/4 361/7/4
f 362/9/4 363/9/4 364/9/4
f 364/9/4 363/9/4 365/9/4
f 364/6/4 365/6/4 367/6/4
f 365/6/4 366/6/4 367/6/4
f 367/6/4 366/6/4 368/6/4
f 364/6/4 367/6/4 369/6/4
f 369/6/4 367/6/4 370/6/4
f 374/9/5 372/9/5 371/9/5
f 375/9/5 372/9/5 374/9/5
f 378/9/5 374/9/5 373/9/5
f 379/7/5 376/7/5 375/7/5
f 379/7/5 375/7/5 374/7/5
f 379/9/5 374/9/5 378/9/5
f 380/7/5 376/7/5 379/7/5
f 383/9/5 378/9/5 377/9/5
f 384/7/5 379/7/5 378/7/5
f 384/9/5 378/9/5 383/9/5
f 385/6/5 381/6/5 380/6/5
f 385/7/5 379/7/5 384/7/5
f 385/6/5 380/6/5 379/6/5
f 386/6/5 381/6/5 385/6/5
f 387/9/5 383/9/5 382/9/5
f 388/7/5 384/7/5 383/7/5
f 388/9/5 383/9/5 387/9/5
f 389/5/5 385/5/5 384/5/5
f 389/7/5 384/7/5 388/7/5
f 389/5/5 386/5/5 385/5/5
f 390/5/5 386/5/5 389/5/5
f 391/5/5 386/5/5 390/5/5
f 392/6/5 381/6/5 386/6/5
f 392/5/5 386/5/5 391/5/5
f 393/6/5 381/6/5 392/6/5
f 396/7/5 388/7/5 387/7/5
f 397/10/5 389/10/5 388/10/5
f 397/7/5 388/7/5 396/7/5
f 398/8/5 390/8/5 389/8/5
f 398/10/5 389/10/5 397/10/5
f 399/6/5 391/6/5 390/6/5
f 399/8/5 390/8/5 398/8/5
f 400/5/5 392/5/5 391/5/5
f 400/6/5 391/6/5 399/6/5
f 401/7/5 393/7/5 392/7/5
f 401/5/5 392/5/5 400/5/5
f 402/8/5 394/8/5 393/8/5
f 402/7/5 393/7/5 401/7/5
f 403/8/5 394/8/5 402/8/5
f 404/9/5 396/9/5 395/9/5
f 405/8/5 397/8/5 396/8/5
f 405/9/5 396/9/5 404/9/5
f 406/10/5 398/10/5 397/10/5
f 406/8/5 397/8/5 405/8/5
f 407/6/5 399/6/5 398/6/5
f 407/10/5 398/10/5 406/10/5
f 407/6/5 400/6/5 399/6/5
f 408/6/5 400/6/5 407/6/5
f 409/4/5 401/4/5 400/4/5
f 409/6/5 400/6/5 408/6/5
f 410/8/5 402/8/5 401/8/5
f 410/4/5 401/4/5 409/4/5
f 411/2/5 403/2/5 402/2/5
f 411/8/5 402/8/5 410/8/5
f 412/6/5 408/6/5 407/6/5
f 412/6/5 406/6/5 405/6/5
f 412/6/5 407/6/5 406/6/5
f 413/6/5 408/6/5 412/6/5
f 414/4/5 411/4/5 410/4/5
f 414/6/5 408/6/5 413/6/5
f 414/4/5 410/4/5 409/4/5
f 414/4/5 409/4/5 408/4/5
f 415/4/5 411/4/5 414/4/5
f 416/4/5 411/4/5 415/4/5
f 417/2/5 403/2/5 411/2/5
f 417/4/5 411/4/5 416/4/5
f 418/2/5 403/2/5 417/2/5
f 419/7/5 405/7/5 404/7/5
f 420/6/5 412/6/5 405/6/5
f 420/7/5 405/7/5 419/7/5
f 421/1/5 413/1/5 412/1/5
f 421/6/5 412/6/5 420/6/5
f 422/4/5 414/4/5 413/4/5
f 422/1/5 413/1/5 421/1/5
f 422/4/5 415/4/5 414/4/5
f 423/4/5 415/4/5 422/4/5
f 424/5/5 416/5/5 415/5/5
f 424/4/5 415/4/5 423/4/5
f 425/4/5 417/4/5 416/4/5
f 425/5/5 416/5/5 424/5/5
f 426/6/5 423/6/5 422/6/5
f 426/6/5 421/6/5 420/6/5
f 426/6/5 422/6/5 421/6/5
f 427/6/5 423/6/5 426/6/5
f 428/6/5 423/6/5 427/6/5
f 429/4/5 425/4/5 424/4/5
f 429/6/5 423/6/5 428/6/5
f 429/4/5 424/4/5 423/4/5
f 430/4/5 425/4/5 429/4/5
f 431/4/5 417/4/5 425/4/5
f 431/4/5 425/4/5 430/4/5
f 432/4/5 417/4/5 431/4/5
f 433/6/5 428/6/5 427/6/5
f 434/1/5 429/1/5 428/1/5
f 434/6/5 428/6/5 433/6/5
f 435/2/5 430/2/5 429/2/5
f 435/1/5 429/1/5 434/1/5
f 436/3/5 431/3/5 430/3/5
f 436/2/5 430/2/5 435/2/5
f 437/3/5 431/3/5 436/3/5
f 441/11/5 439/11/5 438/11/5
f 442/11/5 439/11/5 441/11/5
f 443/11/5 439/11/5 442/11/5
f 444/11/5 439/11/5 443/11/5
f 447/11/5 441/11/5 440/11/5
f 448/9/5 442/9/5 441/9/5
f 448/11/5 441/11/5 447/11/5
f 449/9/5 442/9/5 448/9/5
f 450/9/5 444/9/5 443/9/5
f 450/9/5 445/9/5 444/9/5
f 451/9/5 445/9/5 450/9/5
f 452/9/5 445/9/5 451/9/5
f 454/11/5 447/11/5 446/11/5
f 454/9/5 448/9/5 447/9/5
f 455/9/5 448/9/5 454/9/5
f 456/7/5 452/7/5 451/7/5
f 457/9/5 453/9/5 452/9/5
f 457/7/5 452/7/5 456/7/5
f 459/11/5 454/11/5 446/11/5
f 460/11/5 454/11/5 459/11/5
f 461/9/5 453/9/5 457/9/5
f 462/9/5 453/9/5 461/9/5
f 465/11/5 459/11/5 458/11/5
f 466/11/5 459/11/5 465/11/5
f 467/6/5 462/6/5 461/6/5
f 468/9/5 463/9/5 462/9/5
f 468/6/5 462/6/5 467/6/5
f 469/9/5 463/9/5 468/9/5
f 470/9/5 466/9/5 465/9/5
f 470/11/5 465/11/5 464/11/5
f 471/9/5 466/9/5 470/9/5
f 472/6/5 469/6/5 468/6/5
f 473/11/5 470/11/5 464/11/5
f 475/6/5 469/6/5 472/6/5
f 476/6/5 469/6/5 475/6/5
f 477/11/5 473/11/5 464/11/5
f 478/11/5 473/11/5 477/11/5
f 480/2/5 475/2/5 474/2/5
f 481/7/5 476/7/5 475/7/5
f 481/2/5 475/2/5 480/2/5
f 482/7/5 476/7/5 481/7/5
f 483/9/5 479/9/5 478/9/5
f 486/6/5 481/6/5 480/6/5
f 487/6/5 481/6/5 486/6/5
f 488/9/5 483/9/5 478/9/5
f 489/6/5 484/6/5 483/6/5
f 489/9/5 483/9/5 488/9/5
f 490/6/5 484/6/5 489/6/5
f 494/6/5 486/6/5 485/6/5
f 495/7/5 487/7/5 486/7/5
f 495/6/5 486/6/5 494/6/5
f 496/7/5 487/7/5 495/7/5
f 497/9/5 490/9/5 489/9/5
f 498/6/5 493/6/5 492/6/5
f 498/9/5 490/9/5 497/9/5
f 498/6/5 494/6/5 493/6/5
f 498/6/5 492/6/5 491/6/5
f 498/6/5 491/6/5 490/6/5
f 499/6/5 494/6/5 498/6/5
f 500/11/6 501/11/6 503/11/6
f 503/11/6 501/11/6 504/11/6
f 502/11/6 503/11/6 507/11/6
f 507/11/6 503/11/6 508/11/6
f 504/9/6 505/9/6 509/9/6
f 509/9/6 505/9/6 510/9/6
f 510/9/6 511/9/6 512/9/6
f 506/11/6 507/11/6 514/11/6
f 514/11/6 507/11/6 515/11/6
f 512/9/6 511/9/6 516/9/6
f 516/9/6 511/9/6 517/9/6
f 513/11/6 514/11/6 520/11/6
f 520/11/6 514/11/6 521/11/6
f 517/9/6 518/9/6 522/9/6
f 522/9/6 518/9/6 523/9/6
f 522/6/6 523/6/6 524/6/6
f 519/11/6 520/11/6 525/11/6
f 524/6/6 523/6/6 526/6/6
f 526/6/6 523/6/6 527/6/6
f 519/11/6 525/11/6 528/11/6
f 528/11/6 525/11/6 529/11/6
f 526/7/6 527/7/6 531/7/6
f 531/7/6 527/7/6 532/7/6
f 530/6/6 531/6/6 535/6/6
f 535/6/6 531/6/6 536/6/6
f 533/9/6 534/9/6 537/9/6
f 537/9/6 534/9/6 538/9/6
f 535/7/6 536/7/6 542/7/6
f 542/7/6 536/7/6 543/7/6
f 538/9/6 539/9/6 544/9/6
f 544/9/6 539/9/6 545/9/6
f 540/6/6 541/6/6 546/6/6
f 546/6/6 541/6/6 547/6/6
f 548/9/6 549/9/6 551/9/6
f 551/9/6 549/9/6 552/9/6
f 552/9/6 549/9/6 553/9/6
f 550/9/6 551/9/6 555/9/6
f 551/9/6 552/9/6 555/9/6
f 553/7/6 554/7/6 556/7/6
f 555/9/6 552/9/6 556/9/6
f 552/7/6 553/7/6 556/7/6
f 556/7/6 554/7/6 557/7/6
f 550/9/6 555/9/6 559/9/6
f 559/9/6 555/9/6 560/9/6
f 558/9/6 559/9/6 564/9/6
f 564/9/6 559/9/6 565/9/6
f 561/6/6 562/6/6 566/6/6
f 566/6/6 562/6/6 567/6/6
f 563/9/6 564/9/6 568/9/6
f 563/9/6 568/9/6 569/9/6
f 569/9/6 568/9/6 570/9/6
f 569/7/6 570/7/6 573/7/6
f 573/7/6 570/7/6 574/7/6
f 571/2/6 572/2/6 575/2/6
f 575/2/6 572/2/6 576/2/6
f 573/9/6 574/9/6 577/9/6
f 577/9/6 574/9/6 578/9/6
f 578/6/6 579/6/6 583/6/6
f 583/6/6 579/6/6 584/6/6
f 580/3/6 581/3/6 587/3/6
f 581/6/6 582/6/6 588/6/6
f 587/3/6 581/3/6 588/3/6
f 588/6/6 582/6/6 589/6/6
f 586/6/6 587/6/6 590/6/6
f 585/6/6 586/6/6 590/6/6
f 584/6/6 585/6/6 590/6/6
f 590/6/6 587/6/6 591/6/6
f 592/7/6 593/7/6 596/7/6
f 593/6/6 594/6/6 597/6/6
f 596/7/6 593/7/6 597/7/6
f 597/6/6 594/6/6 598/6/6
f 595/7/6 596/7/6 600/7/6
f 596/5/6 597/5/6 601/5/6
f 597/5/6 598/5/6 601/5/6
f 600/7/6 596/7/6 601/7/6
f 601/5/6 598/5/6 602/5/6
f 602/5/6 598/5/6 603/5/6
f 598/6/6 594/6/6 604/6/6
f 603/5/6 598/5/6 604/5/6
f 604/6/6 594/6/6 605/6/6
f 599/7/6 600/7/6 607/7/6
f 600/10/6 601/10/6 608/10/6
f 607/7/6 600/7/6 608/7/6
f 601/8/6 602/8/6 609/8/6
f 608/10/6 601/10/6 609/10/6
f 602/6/6 603/6/6 610/6/6
f 609/8/6 602/8/6 610/8/6
f 603/5/6 604/5/6 611/5/6
f 610/6/6 603/6/6 611/6/6
f 604/7/6 605/7/6 612/7/6
f 611/5/6 604/5/6 612/5/6
f 605/8/6 606/8/6 613/8/6
f 612/7/6 605/7/6 613/7/6
f 613/8/6 606/8/6 614/8/6
f 607/8/6 608/8/6 615/8/6
f 608/10/6 609/10/6 616/10/6
f 615/8/6 608/8/6 616/8/6
f 609/6/6 610/6/6 617/6/6
f 616/10/6 609/10/6 617/10/6
f 610/6/6 611/6/6 617/6/6
f 617/6/6 611/6/6 618/6/6
f 611/4/6 612/4/6 619/4/6
f 618/6/6 611/6/6 619/6/6
f 612/8/6 613/8/6 620/8/6
f 619/4/6 612/4/6 620/4/6
f 613/2/6 614/2/6 621/2/6
f 620/8/6 613/8/6 621/8/6
f 617/6/6 618/6/6 622/6/6
f 615/6/6 616/6/6 622/6/6
f 616/6/6 617/6/6 622/6/6
f 622/6/6 618/6/6 623/6/6
f 620/4/6 621/4/6 624/4/6
f 623/6/6 618/6/6 624/6/6
f 619/4/6 620/4/6 624/4/6
f 618/4/6 619/4/6 624/4/6
f 624/4/6 621/4/6 625/4/6
f 625/4/6 621/4/6 626/4/6
f 621/2/6 614/2/6 627/2/6
f 626/4/6 621/4/6 627/4/6
f 627/2/6 614/2/6 628/2/6
f 622/1/6 623/1/6 629/1/6
f 615/6/6 622/6/6 629/6/6
f 623/4/6 624/4/6 630/4/6
f 629/1/6 623/1/6 630/1/6
f 624/4/6 625/4/6 630/4/6
f 630/4/6 625/4/6 631/4/6
f 625/5/6 626/5/6 632/5/6
f 631/4/6 625/4/6 632/4/6
f 626/4/6 627/4/6 633/4/6
f 632/5/6 626/5/6 633/5/6
f 630/6/6 631/6/6 634/6/6
f 615/6/6 629/6/6 634/6/6
f 629/6/6 630/6/6 634/6/6
f 634/6/6 631/6/6 635/6/6
f 635/6/6 631/6/6 636/6/6
f 631/4/6 632/4/6 637/4/6
f 636/6/6 631/6/6 637/6/6
f 632/4/6 633/4/6 637/4/6
f 637/4/6 633/4/6 638/4/6
f 633/4/6 627/4/6 639/4/6
f 638/4/6 633/4/6 639/4/6
f 635/6/6 636/6/6 640/6/6
f 636/1/6 637/1/6 641/1/6
f 640/6/6 636/6/6 641/6/6
f 637/2/6 638/2/6 642/2/6
f 641/1/6 637/1/6 642/1/6
f 642/2/6 638/2/6 643/2/6
